<svg t="1567411512706" class="icon" viewBox="0 0 1024 1024" version="1.1" xmlns="http://www.w3.org/2000/svg" p-id="4123" width="200" height="200"><path d="M179.2 512v281.6c0 40.96 15.36 56.32 56.32 56.32h143.36c30.72 0 46.08 15.36 46.08 35.84 0 30.72-20.48 35.84-46.08 35.84H230.4c-61.44 0-107.52-40.96-117.76-102.4v-35.84V245.76v-35.84c5.12-61.44 51.2-102.4 112.64-102.4C394.24 102.4 563.2 102.4 737.28 102.4c71.68 0 117.76 46.08 117.76 117.76v143.36c0 25.6-5.12 40.96-35.84 40.96-25.6 0-35.84-20.48-35.84-40.96V235.52c0-40.96-15.36-56.32-56.32-56.32H235.52c-46.08 0-61.44 15.36-61.44 61.44 5.12 87.04 5.12 179.2 5.12 271.36z" p-id="4124"></path><path d="M517.12 906.24c-51.2 0-51.2 0-51.2-46.08 0-35.84 10.24-61.44 35.84-87.04 76.8-76.8 153.6-153.6 225.28-230.4 15.36-15.36 20.48-15.36 30.72 0 20.48 20.48 40.96 46.08 61.44 66.56 10.24 10.24 10.24 20.48 0 30.72-81.92 87.04-168.96 174.08-250.88 256-15.36 20.48-35.84 5.12-51.2 10.24zM476.16 343.04H302.08c-30.72 0-46.08-10.24-46.08-35.84 0-25.6 15.36-35.84 46.08-35.84h353.28c30.72 0 46.08 10.24 46.08 35.84 0 30.72-20.48 35.84-46.08 35.84H476.16zM424.96 491.52H302.08c-25.6 0-46.08-10.24-46.08-35.84 0-25.6 15.36-35.84 40.96-35.84h240.64c25.6 0 40.96 10.24 46.08 35.84 0 25.6-15.36 35.84-46.08 35.84H424.96zM363.52 645.12H296.96c-20.48 0-40.96-10.24-40.96-35.84 0-25.6 15.36-35.84 40.96-35.84h138.24c25.6 0 40.96 10.24 40.96 35.84 0 25.6-15.36 35.84-40.96 35.84-25.6 5.12-46.08 0-71.68 0zM870.4 593.92c-10.24 0-97.28-92.16-92.16-92.16 10.24-20.48 30.72-35.84 46.08-51.2 15.36-10.24 25.6 0 35.84 10.24l46.08 46.08c10.24 10.24 15.36 25.6 5.12 35.84-10.24 20.48-25.6 40.96-40.96 51.2z" p-id="4125"></path></svg>