<?xml version="1.0" standalone="no"?><!DOCTYPE svg PUBLIC "-//W3C//DTD SVG 1.1//EN" "http://www.w3.org/Graphics/SVG/1.1/DTD/svg11.dtd"><svg t="1572416255329" class="icon" viewBox="0 0 1024 1024" version="1.1" xmlns="http://www.w3.org/2000/svg" p-id="1576" width="200" height="200" xmlns:xlink="http://www.w3.org/1999/xlink"><defs><style type="text/css"></style></defs><path d="M568.32 921.6H281.6c-92.16 0-158.72-61.44-158.72-153.6V394.24c0-15.36-5.12-20.48-20.48-20.48C56.32 368.64 46.08 358.4 46.08 312.32V215.04C46.08 153.6 92.16 102.4 153.6 102.4h552.96C768 102.4 814.08 153.6 819.2 215.04v404.48c0 15.36 5.12 20.48 20.48 20.48h102.4c25.6 0 40.96 15.36 40.96 40.96v133.12c0 61.44-51.2 112.64-117.76 112.64-102.4-5.12-199.68-5.12-296.96-5.12z m189.44-66.56c-10.24-20.48-10.24-40.96-10.24-66.56V389.12 220.16c0-30.72-20.48-51.2-46.08-51.2s-46.08 20.48-46.08 51.2v97.28c0 40.96-10.24 51.2-51.2 51.2H209.92c-15.36 0-20.48 5.12-20.48 20.48V768c0 51.2 30.72 81.92 87.04 81.92h215.04c87.04 5.12 174.08 5.12 266.24 5.12zM599.04 174.08H163.84c-30.72 0-46.08 15.36-46.08 46.08v66.56c0 10.24 5.12 15.36 15.36 15.36h440.32c15.36 0 15.36-5.12 15.36-15.36 0-40.96-5.12-76.8 10.24-112.64z m307.2 588.8s5.12 0 0 0v-40.96c0-10.24 0-15.36-15.36-15.36h-66.56c-5.12-5.12-5.12 0-5.12 10.24v92.16c0 25.6 20.48 46.08 40.96 46.08 25.6 0 46.08-15.36 46.08-40.96 5.12-20.48 0-35.84 0-51.2z" p-id="1577"></path><path d="M471.04 471.04h158.72c25.6 0 40.96 15.36 40.96 35.84 0 20.48-15.36 35.84-40.96 35.84H307.2c-25.6 0-40.96-15.36-40.96-35.84 0-20.48 15.36-35.84 40.96-35.84h163.84zM471.04 706.56H312.32c-25.6 0-40.96-10.24-40.96-35.84 0-20.48 15.36-35.84 46.08-35.84h317.44c25.6 0 40.96 10.24 40.96 35.84 0 20.48-15.36 35.84-46.08 35.84H471.04z" p-id="1578"></path></svg>