<svg t="1567411952052" class="icon" viewBox="0 0 1024 1024" version="1.1" xmlns="http://www.w3.org/2000/svg" p-id="4295" width="300" height="300"><path d="M890.88 619.52v189.44c0 66.56-40.96 112.64-112.64 112.64H245.76c-66.56 0-112.64-46.08-112.64-112.64V317.44c0-66.56 46.08-107.52 107.52-107.52h92.16c15.36 0 25.6-5.12 30.72-15.36a168.96 168.96 0 0 1 296.96 0c5.12 10.24 15.36 15.36 30.72 15.36h92.16c66.56 0 107.52 40.96 107.52 107.52v302.08zM204.8 619.52v179.2c0 46.08 10.24 56.32 56.32 56.32H768c51.2 0 61.44-10.24 61.44-61.44v-266.24-189.44c0-10.24 0-25.6-5.12-35.84-10.24-25.6-35.84-20.48-51.2-20.48-20.48 0-10.24 20.48-10.24 30.72v51.2c-5.12 35.84-30.72 61.44-71.68 61.44H353.28c-40.96 0-71.68-30.72-71.68-71.68V296.96c0-5.12 0-15.36-10.24-15.36-46.08-10.24-66.56 10.24-66.56 46.08v291.84z m307.2-266.24h122.88c56.32 0 56.32 0 51.2-56.32 0-15.36-5.12-15.36-15.36-15.36h-25.6c-15.36 0-25.6-5.12-30.72-20.48-15.36-51.2-51.2-87.04-102.4-87.04S424.96 204.8 409.6 261.12c0 15.36-5.12 20.48-20.48 20.48-46.08 0-46.08 0-46.08 51.2 0 20.48 5.12 25.6 25.6 20.48H512z" p-id="4296"></path><path d="M512 711.68H384c-20.48 0-35.84-5.12-35.84-25.6s15.36-25.6 30.72-25.6h261.12c20.48 0 35.84 10.24 35.84 30.72 0 20.48-15.36 25.6-35.84 25.6-40.96-10.24-87.04-5.12-128-5.12zM512 573.44H384c-20.48 0-30.72-5.12-30.72-25.6s15.36-25.6 35.84-25.6h256c20.48 0 35.84 5.12 35.84 25.6s-15.36 25.6-35.84 25.6H512z" p-id="4297"></path></svg>