<?xml version="1.0" standalone="no"?><!DOCTYPE svg PUBLIC "-//W3C//DTD SVG 1.1//EN" "http://www.w3.org/Graphics/SVG/1.1/DTD/svg11.dtd"><svg t="1572235200327" class="icon" viewBox="0 0 1024 1024" version="1.1" xmlns="http://www.w3.org/2000/svg" p-id="1894" xmlns:xlink="http://www.w3.org/1999/xlink" width="200" height="200"><defs><style type="text/css"></style></defs><path d="M327.08608 358.8352h354.21184c19.89632 0 36.25984-16.27136 36.25984-36.25984 0-19.89632-16.27136-36.25984-36.25984-36.25984H327.08608c-19.89632 0-36.25984 16.27136-36.25984 36.25984 0 19.89632 16.27136 36.25984 36.25984 36.25984z m-36.25984 132.01408c0 19.89632 16.27136 36.25984 36.25984 36.25984h355.51232c19.89632 0 36.25984-16.27136 36.25984-36.25984 0-19.89632-16.27136-36.25984-36.25984-36.25984H327.08608c-19.98848 0-36.25984 16.27136-36.25984 36.25984z" p-id="1895"></path><path d="M429.81376 857.23648H207.33952V166.76352h594.71872v339.1488c0 19.52256 15.80544 35.328 35.328 35.328s35.328-15.80544 35.328-35.328V142.58688c0-25.66144-20.82304-46.48448-46.48448-46.48448H183.168c-25.66144 0-46.48448 20.82304-46.48448 46.48448V881.408c0 25.66144 20.82304 46.48448 46.48448 46.48448h246.64576a35.328 35.328 0 0 0 34.86208-35.328c0-19.33312-15.616-35.0464-34.86208-35.328z" p-id="1896"></path><path d="M733.72672 803.87584h-138.24512l9.29792-9.29792 0.09216-0.09216c10.97216-11.43296 10.87488-29.75232-0.37376-41.00096-11.24864-11.24864-29.56288-11.3408-41.00096-0.37376l-59.40736 59.40736a29.29664 29.29664 0 0 0-8.45824 20.54656v0.09216c0 7.808 2.97472 15.06304 8.45824 20.54656l59.22304 59.22304a29.1328 29.1328 0 0 0 28.53888 8.27392c10.41408-2.60096 18.4064-10.69056 21.10464-21.10464a29.41952 29.41952 0 0 0-8.27392-28.53888l-9.20576-9.20576h138.24512c16.08192 0 29.2864-13.1072 29.2864-29.2864-0.08704-16.08192-13.19424-29.18912-29.28128-29.18912z m145.21856-138.89536l-59.3152-59.3152-0.18432-0.18432a29.1072 29.1072 0 0 0-40.6272 0.7424 29.18912 29.18912 0 0 0-0.7424 40.6272l9.48224 9.5744h-138.24512c-16.08192 0-29.2864 13.1072-29.2864 29.2864 0 16.08192 13.1072 29.2864 29.2864 29.2864h138.15296l-9.29792 9.29792-0.09216 0.09216c-10.97216 11.43296-10.87488 29.84448 0.37376 41.00096a29.11744 29.11744 0 0 0 20.63872 8.45824 29.17376 29.17376 0 0 0 20.36224-8.18176l59.40736-59.40736a29.67552 29.67552 0 0 0 8.45824-20.63872 29.03552 29.03552 0 0 0-8.3712-20.63872z" p-id="1897"></path></svg>