<?xml version="1.0" standalone="no"?><!DOCTYPE svg PUBLIC "-//W3C//DTD SVG 1.1//EN" "http://www.w3.org/Graphics/SVG/1.1/DTD/svg11.dtd"><svg t="1572235203886" class="icon" viewBox="0 0 1024 1024" version="1.1" xmlns="http://www.w3.org/2000/svg" p-id="2007" xmlns:xlink="http://www.w3.org/1999/xlink" width="200" height="200"><defs><style type="text/css"></style></defs><path d="M468.48 423.90016H311.36256c-21.49888 0-38.99904 17.50016-38.99904 38.99904 0 21.4016 17.50016 38.99904 38.99904 38.99904H468.48c21.4016 0 38.99904-17.50016 38.99904-38.99904 0-21.4016-17.50016-38.99904-38.99904-38.99904zM311.36256 242.89792c-21.4016 0-38.99904 17.50016-38.99904 38.99904 0 21.4016 17.50016 38.99904 38.99904 38.99904h380.99968c21.4016 0 38.99904-17.50016 38.99904-38.99904 0-21.4016-17.50016-38.99904-38.99904-38.99904H311.36256z" p-id="2008"></path><path d="M432.1024 882.60096H192.79872V139.89888h639.69792v364.8c0 21.00224 16.9984 38.00064 38.00064 38.00064s38.00064-16.9984 38.00064-38.00064V113.89952c0-27.60192-22.4-50.00192-50.00192-50.00192H166.79936c-27.60192 0-50.00192 22.4-50.00192 50.00192v794.7008c0 27.60192 22.4 50.00192 50.00192 50.00192h265.29792c20.80256-0.30208 37.49888-17.19808 37.49888-38.00064s-16.7936-37.70368-37.49376-38.00064z" p-id="2009"></path><path d="M859.09504 815.08352l-68.49536-102.76864c30.1824-21.67808 49.9968-56.87296 49.9968-96.8448 0-65.93536-53.4528-119.38304-119.38304-119.38304-65.93536 0-119.38816 53.4528-119.38816 119.38304a119.05024 119.05024 0 0 0 49.9968 96.8448l-68.49536 102.76864h-77.0048v143.26272h429.78816v-143.26272h-77.01504z m-209.5616-199.56224c-0.01536-39.57248 32.05632-71.66464 71.6288-71.68 39.57248-0.01536 71.66464 32.05632 71.68 71.6288 0.01536 39.57248-32.05632 71.66464-71.6288 71.68-39.57248 0.01536-71.66464-32.05632-71.68-71.6288z m46.5152 116.56704a118.1696 118.1696 0 0 0 50.33472 0l65.52064 82.9952H630.528l65.52064-82.9952z" p-id="2010"></path></svg>