<?xml version="1.0" standalone="no"?><!DOCTYPE svg PUBLIC "-//W3C//DTD SVG 1.1//EN" "http://www.w3.org/Graphics/SVG/1.1/DTD/svg11.dtd"><svg t="1567410672167" class="icon" viewBox="0 0 1024 1024" version="1.1" xmlns="http://www.w3.org/2000/svg" p-id="3565" xmlns:xlink="http://www.w3.org/1999/xlink" width="200" height="200"><defs><style type="text/css"></style></defs><path d="M512 921.6H199.68c-51.2 0-76.8-25.6-76.8-81.92V215.04c0-51.2 25.6-81.92 76.8-81.92h61.44c25.6 0 51.2 5.12 66.56-20.48 10.24-10.24 30.72-10.24 51.2-10.24h271.36c25.6 0 46.08 5.12 61.44 25.6 5.12 10.24 15.36 10.24 20.48 10.24h97.28c46.08 0 71.68 25.6 76.8 71.68v640c-5.12 46.08-30.72 71.68-76.8 71.68H512z m-322.56-394.24v296.96c0 20.48 5.12 25.6 25.6 25.6h593.92c20.48 0 25.6-5.12 25.6-25.6V281.6c0-25.6 10.24-56.32-5.12-71.68-15.36-15.36-46.08-5.12-71.68-5.12-30.72 0-30.72 0-30.72 30.72 0 46.08-25.6 71.68-71.68 76.8H368.64c-40.96 0-66.56-30.72-66.56-71.68v-20.48c0-10.24-5.12-15.36-15.36-15.36H215.04c-15.36 0-20.48 5.12-20.48 20.48-5.12 102.4-5.12 204.8-5.12 302.08zM512 245.76h92.16c51.2 0 51.2 0 51.2-51.2 0-20.48-5.12-20.48-20.48-20.48H419.84c-51.2 0-51.2 0-51.2 51.2 0 15.36 5.12 15.36 15.36 15.36 46.08 5.12 87.04 5.12 128 5.12z" p-id="3566"></path><path d="M460.8 711.68c-10.24 0-20.48-5.12-30.72-15.36-30.72-35.84-61.44-66.56-92.16-102.4-15.36-20.48-15.36-40.96 0-51.2 15.36-15.36 35.84-10.24 51.2 5.12 20.48 20.48 35.84 40.96 51.2 61.44 10.24 15.36 15.36 10.24 25.6 0 46.08-51.2 92.16-102.4 143.36-153.6l15.36-15.36c15.36-15.36 35.84-15.36 51.2-5.12 15.36 15.36 15.36 35.84 0 51.2-61.44 71.68-128 138.24-194.56 209.92 0 10.24-5.12 15.36-20.48 15.36z" p-id="3567"></path></svg>