<svg t="1567412051859" class="icon" viewBox="0 0 1024 1024" version="1.1" xmlns="http://www.w3.org/2000/svg" p-id="4437" width="200" height="200"><path d="M148.48 517.12c-15.36 15.36-30.72 30.72-46.08 40.96-20.48 15.36-40.96 20.48-51.2 5.12-15.36-15.36-10.24-30.72 5.12-51.2 87.04-81.92 174.08-163.84 266.24-245.76 51.2-51.2 102.4-97.28 158.72-148.48 25.6-25.6 40.96-25.6 66.56 0 138.24 128 281.6 261.12 419.84 389.12 20.48 20.48 20.48 35.84 10.24 46.08-15.36 15.36-30.72 10.24-51.2-5.12-133.12-122.88-266.24-240.64-394.24-363.52-10.24-10.24-20.48-10.24-30.72 0C409.6 271.36 317.44 358.4 225.28 440.32c-5.12 10.24-10.24 15.36-10.24 25.6v348.16c0 30.72 15.36 46.08 46.08 46.08h92.16c15.36 0 20.48-5.12 20.48-20.48v-143.36c0-30.72 10.24-35.84 40.96-35.84H614.4c20.48 0 35.84 5.12 35.84 25.6 0 25.6-15.36 30.72-35.84 30.72H460.8c-25.6 0-30.72 5.12-25.6 30.72v138.24c0 25.6-10.24 35.84-35.84 35.84H250.88C189.44 921.6 153.6 880.64 153.6 824.32v-276.48c-5.12-10.24 0-20.48-5.12-30.72z" p-id="4438"></path><path d="M808.96 721.92v-102.4c0-20.48 10.24-35.84 30.72-35.84 20.48 0 30.72 10.24 30.72 35.84v209.92c0 56.32-40.96 97.28-97.28 97.28h-143.36c-25.6 0-35.84-10.24-35.84-25.6 0-25.6 20.48-25.6 35.84-25.6h133.12c35.84 0 46.08-10.24 46.08-46.08v-107.52z" p-id="4439"></path></svg>