<?xml version="1.0" standalone="no"?><!DOCTYPE svg PUBLIC "-//W3C//DTD SVG 1.1//EN" "http://www.w3.org/Graphics/SVG/1.1/DTD/svg11.dtd"><svg t="1572235207437" class="icon" viewBox="0 0 1024 1024" version="1.1" xmlns="http://www.w3.org/2000/svg" p-id="2120" xmlns:xlink="http://www.w3.org/1999/xlink" width="200" height="200"><defs><style type="text/css"></style></defs><path d="M900.67456 558.65344a33.7408 33.7408 0 0 0 33.7408-33.7408v-169.6256c0-28.19584-15.45728-52.82816-38.33344-65.93024l-32.97792-124.51328c-9.37984-35.4048-45.81376-56.58112-81.21344-47.20128L171.38688 279.35232h-5.86752c-41.87136 0-75.93472 34.06336-75.93472 75.93472v169.6256a33.7408 33.7408 0 0 0 33.7408 33.7408 35.3536 35.3536 0 0 1 35.31264 35.31264 35.3536 35.3536 0 0 1-35.31264 35.31264 33.7408 33.7408 0 0 0-33.7408 33.7408v169.6256c0 41.87136 34.06336 75.93472 75.93472 75.93472h692.96128c41.87136 0 75.93472-34.06336 75.93472-75.93472v-169.6256a33.7408 33.7408 0 0 0-33.7408-33.7408c-19.47136 0-35.31264-15.84128-35.31264-35.31264s15.84128-35.31264 35.31264-35.31264z m-105.21088-389.75488a13.42464 13.42464 0 0 1 16.38912 9.5232l26.73152 100.93056H378.46016l417.00352-110.45376zM157.06624 832.64v-141.57312c40.15616-13.99296 69.05344-52.23936 69.05344-97.10592S197.2224 510.85312 157.06624 496.86016V355.28704c0-4.6592 3.79392-8.45312 8.45312-8.45312h87.49056v494.26432H165.51936c-4.6592 0-8.45312-3.79392-8.45312-8.45824z m709.86752-335.77984c-40.15616 13.99296-69.05344 52.23936-69.05344 97.10592s28.89728 83.11296 69.05344 97.10592v141.57312c0 4.66432-3.79392 8.45312-8.45824 8.45312H301.2096V346.83392h557.27104c4.66432 0 8.45824 3.79392 8.45824 8.45312l-0.00512 141.57312z" p-id="2121"></path><path d="M673.28512 515.4304H443.8528a24.09984 24.09984 0 0 0 0 48.19968h229.43744a24.09472 24.09472 0 1 0-0.00512-48.19968z m0 115.67616H443.8528a24.09984 24.09984 0 0 0 0 48.19968h229.43744a24.09472 24.09472 0 1 0-0.00512-48.19968z" p-id="2122"></path></svg>