<?xml version="1.0" standalone="no"?><!DOCTYPE svg PUBLIC "-//W3C//DTD SVG 1.1//EN" "http://www.w3.org/Graphics/SVG/1.1/DTD/svg11.dtd"><svg t="1572233331309" class="icon" viewBox="0 0 1024 1024" version="1.1" xmlns="http://www.w3.org/2000/svg" p-id="1672" xmlns:xlink="http://www.w3.org/1999/xlink" width="200" height="200"><defs><style type="text/css"></style></defs><path d="M462.61248 483.5072v259.456c0 26.3424-13.16864 52.67968-32.92672 72.43776s-46.09536 32.92672-72.43776 32.92672c-19.75808 0-39.51104 0-52.67968 6.58432-32.92672 6.58432-59.26912 39.51104-92.19072 59.26912-65.85344 32.92672-111.9488-13.16864-118.53312-79.02208-6.58432-72.43776-6.58432-131.70688-6.58432-177.80224 6.58432-52.67968 13.16864-167.26528 26.3424-200.192 19.75808-52.67968 46.09536-92.19072 85.6064-131.70688s85.6064-65.85344 131.70688-85.6064c52.67968-19.75808 105.36448 0 111.9488 65.85344 0 26.3424 0 46.09536-6.58432 59.26912l19.75808-19.75808c13.16864-6.58432 13.16864-19.75808 13.16864-39.51104V141.07648c0-26.3424 19.75808-46.09536 46.09536-46.09536s46.09536 19.75808 46.09536 46.09536v177.80224c0 13.16864 6.58432 26.3424 13.16864 39.51104l6.58432 6.58432V312.2944c0-65.85344 52.67968-85.6064 111.9488-65.85344 52.67968 19.75808 98.78016 46.09536 131.70688 85.6064 39.51104 39.51104 65.85344 79.02208 85.6064 131.70688 13.16864 39.51104 19.75808 147.5072 26.3424 200.192 0 52.67968 0 111.9488-6.58432 177.80224s-46.09536 105.36448-118.53312 79.02208c-32.92672-13.16864-59.26912-46.09536-92.19072-59.26912-13.16864-6.58432-32.92672-6.58432-52.67968-6.58432-26.3424 0-52.67968-13.16864-72.43776-32.92672s-32.92672-46.09536-32.92672-72.43776V483.5072c0-26.3424 0-52.67968 13.16864-72.43776l-32.92672-39.51104c-6.58432-6.58432-13.16864-13.16864-19.75808-13.16864-6.58432 0-19.75808 0-26.3424 6.58432l-39.51104 46.09536c6.5792 26.3424 6.5792 46.10048 6.5792 72.43776z m414.86848 246.28736c-39.51104 6.58432-111.9488 13.16864-184.38656-32.92672-6.58432-6.58432-13.16864-19.75808-6.58432-26.3424 6.58432-6.58432 19.75808-13.16864 26.3424-6.58432 65.85344 39.51104 131.70688 32.92672 164.62848 26.3424v-32.92672c0-46.09536-6.58432-154.09664-19.75808-187.01824-13.16864-39.51104-39.51104-79.02208-65.85344-105.36448-32.92672-32.92672-65.85344-52.67968-111.9488-65.85344-39.51104-13.16864-19.75808 39.51104-19.75808 65.85344 6.58432 26.3424 6.58432 46.09536-13.16864 65.85344-13.16864 13.16864-13.16864 32.92672-13.16864 46.09536v266.04032c0 13.16864 6.58432 19.75808 13.16864 26.3424 6.58432 6.58432 19.75808 13.16864 26.3424 13.16864 19.75808 0 46.09536 0 65.85344 6.58432 46.09536 13.16864 59.26912 39.51104 105.36448 59.26912 19.75808 13.16864 26.3424 0 26.3424-19.75808 0-32.9216 6.58432-65.84832 6.58432-98.77504z m-724.3776-39.51104c32.92672 13.16864 98.78016 19.75808 171.21792-26.3424 6.58432-6.58432 19.75808 0 26.3424 6.58432 6.58432 6.58432 0 19.75808-6.58432 26.3424-72.43776 46.09536-144.87552 39.51104-184.38656 32.92672 0 32.92672 0 65.85344 6.58432 98.78016 0 19.75808 0 32.92672 26.3424 19.75808 39.51104-19.75808 59.26912-52.67968 105.36448-59.26912 19.75808-6.58432 46.09536-6.58432 65.85344-6.58432 13.16864 0 19.75808-6.58432 26.3424-13.16864 6.58432-6.58432 13.16864-19.75808 13.16864-26.3424V476.92288c0-13.16864 0-32.92672-6.58432-46.09536-19.75808-19.75808-19.75808-32.92672-13.16864-65.85344 6.58432-26.3424 19.75808-72.43776-19.75808-65.85344-52.6848 19.75808-85.61152 39.51616-118.53824 72.43776S192.6144 437.41184 179.44576 476.92288c-13.16864 32.92672-19.75808 140.92288-19.75808 187.01824-6.58432 6.58944-6.58432 19.75808-6.58432 26.3424z" p-id="1673"></path></svg>