<?xml version="1.0" standalone="no"?><!DOCTYPE svg PUBLIC "-//W3C//DTD SVG 1.1//EN" "http://www.w3.org/Graphics/SVG/1.1/DTD/svg11.dtd"><svg t="1572235467519" class="icon" viewBox="0 0 1024 1024" version="1.1" xmlns="http://www.w3.org/2000/svg" p-id="2454" xmlns:xlink="http://www.w3.org/1999/xlink" width="200" height="200"><defs><style type="text/css"></style></defs><path d="M785.81248 162.44224H728.5248l-7.1424 28.17024a53.69856 53.69856 0 0 1-52.13184 40.49408H372.55168a53.69344 53.69344 0 0 1-52.13184-40.49408l-7.1424-28.17024H238.18752c-86.03648 0-156.032 69.99552-156.032 156.032v448.91648c0 86.03648 69.99552 156.032 156.032 156.032h547.62496c86.03648 0 156.032-69.99552 156.032-156.032V318.47424c0-86.03648-69.99552-156.032-156.032-156.032z m81.3312 604.94336c0 44.84608-36.48512 81.3312-81.3312 81.3312H238.18752c-44.84608 0-81.3312-36.48512-81.3312-81.3312V318.47424c0-44.84608 36.48512-81.3312 81.3312-81.3312h20.59776a128.38912 128.38912 0 0 0 113.7664 68.66432h296.704a128.38912 128.38912 0 0 0 113.7664-68.66432h2.79552c44.84608 0 81.3312 36.48512 81.3312 81.3312v448.91136h-0.00512z" p-id="2455"></path><path d="M658.22208 515.84h-94.85312V430.7968c0-13.09696-9.51808-23.71584-21.25312-23.71584H485.67808c-11.74016 0-21.25312 10.61888-21.25312 23.71584v85.0432h-85.8624a23.71072 23.71072 0 0 0-23.71072 23.71584v51.51744a23.71584 23.71584 0 0 0 23.71072 23.71584h85.8624v95.67232c0 13.09696 9.51808 23.71072 21.25312 23.71072h56.43264c11.73504 0 21.25312-10.61888 21.25312-23.71072v-95.67232h94.85312a23.71072 23.71072 0 0 0 23.71072-23.71584v-51.51744a23.7056 23.7056 0 0 0-23.7056-23.71584zM393.28256 177.44384h250.21952a38.43072 38.43072 0 1 0 0-76.86144H393.28256a38.43072 38.43072 0 1 0 0 76.86144z" p-id="2456"></path></svg>