<?xml version="1.0" standalone="no"?><!DOCTYPE svg PUBLIC "-//W3C//DTD SVG 1.1//EN" "http://www.w3.org/Graphics/SVG/1.1/DTD/svg11.dtd"><svg t="1572235462698" class="icon" viewBox="0 0 1024 1024" version="1.1" xmlns="http://www.w3.org/2000/svg" p-id="2343" xmlns:xlink="http://www.w3.org/1999/xlink" width="200" height="200"><defs><style type="text/css"></style></defs><path d="M655.34464 617.61024c139.65312 51.39968 244.0448 175.54432 267.42784 326.5792H858.0608c-30.14144-163.88608-173.45024-288.12288-346.05568-288.12288-172.60544 0-315.91936 124.24192-346.05568 288.12288h-64.7168c23.38304-151.03488 127.77472-275.18464 267.39712-326.5792-86.41536-49.71008-144.74752-142.81216-144.74752-249.67168V79.81568h576.25088v288.12288c-0.00512 106.85952-58.3424 199.9616-144.78848 249.67168z m-47.30368-441.7536h-64.0256V111.82592H479.98976v64.0256H415.95904v64.0256h64.03072v64.0256h64.03072V239.88224h64.0256V175.85664zM287.90272 367.93856c0 123.77088 100.3264 224.09728 224.09728 224.09728s224.09728-100.3264 224.09728-224.09728H287.90272z" p-id="2344"></path></svg>