<?xml version="1.0" standalone="no"?><!DOCTYPE svg PUBLIC "-//W3C//DTD SVG 1.1//EN" "http://www.w3.org/Graphics/SVG/1.1/DTD/svg11.dtd"><svg t="1565772359823" class="icon" viewBox="0 0 1024 1024" version="1.1" xmlns="http://www.w3.org/2000/svg" p-id="2271" xmlns:xlink="http://www.w3.org/1999/xlink" width="200" height="200"><defs><style type="text/css"></style></defs><path d="M512 947.2H209.066667c-12.8 0-25.6 4.266667-34.133334 12.8-29.866667 34.133333-81.066667 29.866667-110.933333 0-29.866667-34.133333-29.866667-81.066667 4.266667-110.933333 8.533333-8.533333 12.8-17.066667 12.8-29.866667V204.8c0-12.8-4.266667-21.333333-12.8-29.866667-34.133333-29.866667-38.4-81.066667-4.266667-110.933333 34.133333-29.866667 81.066667-29.866667 110.933333 4.266667 8.533333 8.533333 17.066667 12.8 29.866667 12.8h614.4c12.8 0 21.333333-4.266667 29.866667-12.8 29.866667-34.133333 81.066667-38.4 115.2-4.266667 29.866667 34.133333 29.866667 81.066667-4.266667 110.933333-8.533333 8.533333-12.8 17.066667-12.8 29.866667v614.4c0 12.8 4.266667 21.333333 12.8 29.866667 34.133333 29.866667 38.4 76.8 4.266667 110.933333-29.866667 34.133333-81.066667 34.133333-110.933334 0-8.533333-12.8-21.333333-12.8-34.133333-12.8H512zM866.133333 512V204.8c0-21.333333-21.333333-46.933333-42.666666-46.933333H204.8c-21.333333 0-46.933333 25.6-46.933333 46.933333v614.4c0 21.333333 25.6 46.933333 46.933333 46.933333h610.133333c25.6 0 46.933333-25.6 46.933334-46.933333 4.266667-102.4 4.266667-204.8 4.266666-307.2z" p-id="2272"></path><path d="M563.2 524.8v123.733333c0 17.066667 4.266667 21.333333 21.333333 21.333334 34.133333 0 34.133333 0 34.133334 34.133333 0 46.933333 0 46.933333-42.666667 46.933333h-145.066667c-17.066667 0-25.6-4.266667-21.333333-21.333333v-12.8c0-38.4 0-42.666667 38.4-42.666667 12.8 0 12.8-4.266667 12.8-12.8V401.066667c0-12.8-4.266667-17.066667-12.8-17.066667H345.6c-12.8-4.266667-17.066667 0-17.066667 8.533333v46.933334c0 12.8 0 17.066667-17.066666 17.066666-59.733333 0-59.733333 0-59.733334-59.733333V315.733333c0-12.8 4.266667-17.066667 17.066667-17.066666h494.933333c12.8 0 17.066667 4.266667 17.066667 17.066666v123.733334c0 12.8-4.266667 17.066667-17.066667 17.066666-21.333333 0-46.933333 8.533333-59.733333-4.266666-12.8-12.8-4.266667-38.4-4.266667-55.466667s-4.266667-21.333333-21.333333-21.333333h-98.133333c-12.8 0-17.066667 4.266667-17.066667 17.066666v132.266667z" p-id="2273"></path></svg>