<?xml version="1.0" standalone="no"?><!DOCTYPE svg PUBLIC "-//W3C//DTD SVG 1.1//EN" "http://www.w3.org/Graphics/SVG/1.1/DTD/svg11.dtd"><svg t="1567410695912" class="icon" viewBox="0 0 1024 1024" version="1.1" xmlns="http://www.w3.org/2000/svg" p-id="3901" xmlns:xlink="http://www.w3.org/1999/xlink" width="200" height="200"><defs><style type="text/css"></style></defs><path d="M506.88 465.92C491.52 460.8 476.16 460.8 460.8 450.56 373.76 404.48 286.72 358.4 199.68 317.44c-15.36-10.24-20.48-15.36-25.6-30.72 0-15.36 10.24-25.6 20.48-30.72 92.16-51.2 184.32-97.28 271.36-143.36 30.72-15.36 61.44-15.36 92.16 0 87.04 46.08 174.08 92.16 266.24 138.24 10.24 5.12 20.48 15.36 20.48 30.72s-5.12 25.6-20.48 30.72c-92.16 46.08-184.32 92.16-271.36 138.24-15.36 10.24-30.72 10.24-46.08 15.36zM271.36 286.72c76.8 40.96 148.48 76.8 225.28 112.64 10.24 5.12 25.6 5.12 35.84 0 51.2-25.6 102.4-51.2 153.6-81.92 20.48-10.24 40.96-20.48 61.44-35.84-71.68-35.84-143.36-76.8-215.04-112.64-15.36-5.12-25.6-5.12-40.96 0-25.6 15.36-51.2 25.6-76.8 35.84-46.08 30.72-92.16 56.32-143.36 81.92zM117.76 558.08V419.84c0-40.96 30.72-56.32 66.56-40.96 87.04 46.08 168.96 92.16 256 138.24 30.72 15.36 46.08 40.96 46.08 76.8v266.24c0 10.24 0 15.36-5.12 25.6-5.12 25.6-30.72 40.96-56.32 25.6-87.04-46.08-174.08-97.28-261.12-143.36-30.72-15.36-40.96-40.96-40.96-71.68-10.24-46.08-5.12-92.16-5.12-138.24z m61.44-107.52v245.76c0 10.24 5.12 20.48 15.36 25.6 71.68 35.84 138.24 76.8 209.92 112.64 15.36 10.24 15.36 5.12 15.36-10.24 0-56.32-5.12-112.64 0-174.08 5.12-51.2-10.24-76.8-56.32-102.4-61.44-25.6-122.88-61.44-184.32-97.28zM542.72 737.28v-138.24c0-35.84 15.36-61.44 46.08-76.8 87.04-46.08 174.08-92.16 256-143.36 30.72-15.36 61.44 0 61.44 35.84v281.6c0 30.72-15.36 51.2-40.96 66.56-87.04 46.08-174.08 97.28-266.24 143.36-30.72 15.36-61.44 0-61.44-35.84 5.12-40.96 5.12-87.04 5.12-133.12z m61.44 102.4h5.12c76.8-40.96 148.48-81.92 225.28-122.88 10.24-5.12 10.24-10.24 10.24-20.48V450.56h-5.12c-71.68 40.96-148.48 81.92-220.16 117.76-10.24 5.12-15.36 15.36-15.36 25.6v245.76z" p-id="3902"></path></svg>