<?xml version="1.0" standalone="no"?><!DOCTYPE svg PUBLIC "-//W3C//DTD SVG 1.1//EN" "http://www.w3.org/Graphics/SVG/1.1/DTD/svg11.dtd"><svg t="1574057245614" class="icon" viewBox="0 0 1024 1024" version="1.1" xmlns="http://www.w3.org/2000/svg" p-id="3091" xmlns:xlink="http://www.w3.org/1999/xlink" width="200" height="200"><defs><style type="text/css"></style></defs><path d="M960.2 155.3H454.5C435 93.2 377.5 47.7 309.3 47.7c-68.5 0-125.9 45.4-145.2 107.5H71.5c-25.1 0-45.3 20.3-45.3 45.3 0 24.9 20.3 45.2 45.3 45.2H164c19.4 62.2 76.8 107.5 145.2 107.5 68.2 0 125.7-45.3 145.2-107.5h505.7c24.9 0 45.1-20.3 45.1-45.2 0.1-25-20.1-45.2-45-45.2zM309.3 262.8c-34.3 0-62.3-27.9-62.3-62.2 0-34.4 28-62.3 62.3-62.3s62.3 27.9 62.3 62.3c0 34.3-28.1 62.2-62.3 62.2z m650.9 226.4H836.9c-19.5-62.2-76.8-107.6-145.2-107.6S566 427 546.5 489.2h-475c-25.1 0-45.3 20.2-45.3 45.1 0 25.1 20.3 45.5 45.3 45.5h475c19.5 62 76.8 107.4 145.2 107.4s125.7-45.5 145.2-107.4h123.2c24.9 0 45.1-20.4 45.1-45.5 0.1-24.9-20.1-45.1-45-45.1zM691.7 596.6c-34.3 0-62.3-27.8-62.3-62.3 0-34.2 28-62.1 62.3-62.1s62.3 27.9 62.3 62.1c0 34.5-28 62.3-62.3 62.3z m268.5 218.9H459.5c-11.7-72.4-74.3-128.1-150.2-128.1s-138.5 55.7-150.4 128.1H71.5c-25.1 0-45.3 20.4-45.3 45.3 0 25.1 20.3 45.3 45.3 45.3H172c24.8 51 76.8 86.8 137.3 86.8 60.5 0 112.4-35.8 137.1-86.8h513.8c24.9 0 45.1-20.3 45.1-45.3 0-24.9-20.2-45.3-45.1-45.3z m-650.9 86.9c-34.3 0-62.3-28-62.3-62.3s28-62.3 62.3-62.3 62.3 28 62.3 62.3-28.1 62.3-62.3 62.3z" p-id="3092"></path></svg>