<?xml version="1.0" standalone="no"?><!DOCTYPE svg PUBLIC "-//W3C//DTD SVG 1.1//EN" "http://www.w3.org/Graphics/SVG/1.1/DTD/svg11.dtd"><svg t="1572235362533" class="icon" viewBox="0 0 1024 1024" version="1.1" xmlns="http://www.w3.org/2000/svg" p-id="2232" xmlns:xlink="http://www.w3.org/1999/xlink" width="200" height="200"><defs><style type="text/css"></style></defs><path d="M343.12192 490.72128C222.64832 385.50016 235.6224 227.2768 329.61536 139.27424c94.464-88.448 242.66752-85.02784 329.5488 5.90848 91.49952 95.76448 91.79136 250.14784-22.34368 345.56928 21.48864 9.98912 42.27584 20.3776 61.23008 33.9456 7.6288 5.45792 15.744 10.42432 22.56896 16.768 6.8864 6.4 33.90976 30.86848 39.05536 24.2944 21.83168-27.89376 47.42656-67.2256 69.76-94.72 17.72032-21.81632 12.53888-27.52 36.95616-13.2096 24.99072 14.63808 34.4064 19.42016 58.95168 34.79552 23.92576 14.98624 25.67168 28.03712 6.30272 48.03072a9445.6576 9445.6576 0 0 1-99.70176 101.34016c-5.57568 5.58592-7.36768 9.04192-2.45248 16.6656 46.6688 72.36096 68.86912 152.32 72.2176 237.9008 0.43008 11.05408 1.8432 22.08256 0.18944 33.2032-1.60256 10.76224-7.23968 17.01888-18.16576 18.06848-5.07904 0.4864-10.19392 0.86528-15.29344 0.8704-114.02752 0.04608-228.06528 0.94208-342.08256-0.19456-138.11712-1.37728-276.22912 0.15872-414.336-0.63488-27.51488-0.15872-33.32608-5.53472-32.87552-32.93184 2.06336-126.02368 40.77568-237.87008 130.3296-329.00608 37.21216-37.86752 78.85824-70.40512 127.9232-92.2368 1.92-0.85504 3.73248-1.94048 5.72416-2.97984z m163.8912 376.7552c-47.54944-40.68864-93.824-80.18432-139.93472-119.87456-5.77536-4.97152-11.3152-10.48064-15.8464-16.57344-6.0928-8.19712-4.75136-16.3072 4.01408-21.95456 5.30944-3.42016 11.18208-6.17472 17.11616-8.3712 21.91872-8.1152 29.27104-6.66624 51.19488-14.76608 19.31264-7.13216 27.20256-4.87424 39.808 11.02848 16.6912 21.05344 39.25504 39.89504 58.24 60.8 15.37536 16.93184 45.09184 30.81728 59.44832 13.3376 45.51168-42.7776 88.25344-90.2656 124.70272-135.39328 3.09248-3.82976-26.14272-26.9568-31.34464-30.61248-58.52672-41.13408-123.99104-66.25792-194.93376-62.0288-107.50976 6.41024-192.67072 57.75872-253.72672 147.26144-34.28352 50.25792-53.56544 106.08128-60.01152 166.43072-0.59392 5.57568-2.81088 11.42272 7.7312 11.37152 98.59584-0.51712 197.19168-0.38912 295.78752-0.67584 11.8784-0.03584 23.71072 2.95424 37.75488 0.02048zM342.64064 308.20864c-1.99168 97.74592 80.07168 155.68384 146.91328 155.16672 84.32128-0.65536 149.9392-69.4016 149.92896-158.22848-0.01024-83.56864-63.58528-147.16928-147.15392-147.22048-86.656-0.05632-149.70368 63.24736-149.68832 150.28224z m426.88512 404.4544l-159.04256 155.75552c66.048 0 132.10112-0.22528 198.14912 0.256 9.15456 0.06656 8.53504-4.34688 7.85408-10.09664-6.27712-52.93568-21.23776-103.01952-46.96064-145.91488z" p-id="2233"></path></svg>