<?xml version="1.0" standalone="no"?><!DOCTYPE svg PUBLIC "-//W3C//DTD SVG 1.1//EN" "http://www.w3.org/Graphics/SVG/1.1/DTD/svg11.dtd"><svg t="1567410701711" class="icon" viewBox="0 0 1024 1024" version="1.1" xmlns="http://www.w3.org/2000/svg" p-id="4012" xmlns:xlink="http://www.w3.org/1999/xlink" width="200" height="200"><defs><style type="text/css"></style></defs><path d="M363.52 491.52C307.2 450.56 276.48 399.36 271.36 327.68 261.12 199.68 389.12 87.04 517.12 102.4c117.76 15.36 194.56 117.76 189.44 225.28-5.12 107.52-92.16 199.68-199.68 204.8-71.68 5.12-138.24 20.48-199.68 66.56-76.8 61.44-122.88 143.36-133.12 245.76 0 15.36 10.24 10.24 15.36 10.24h286.72c15.36 0 20.48 5.12 20.48 20.48 0 46.08 0 46.08-46.08 46.08H122.88c-15.36 0-20.48-5.12-20.48-20.48 0-138.24 51.2-261.12 158.72-348.16 30.72-25.6 61.44-46.08 102.4-61.44z m122.88-322.56c-81.92 0-153.6 66.56-153.6 153.6 0 76.8 71.68 148.48 148.48 148.48 87.04 0 153.6-66.56 153.6-148.48 5.12-87.04-61.44-153.6-148.48-153.6zM803.84 419.84h71.68c10.24 0 10.24 5.12 10.24 10.24 0 51.2 5.12 51.2-51.2 51.2h-46.08c-15.36 0-10.24 5.12-10.24 15.36 0 10.24-5.12 20.48 10.24 15.36H870.4c10.24 0 15.36 5.12 15.36 15.36 0 51.2 0 51.2-46.08 51.2h-35.84c-5.12 0-20.48-5.12-20.48 5.12-5.12 10.24 0 20.48 0 35.84 0 5.12 5.12 5.12 10.24 5.12 76.8 10.24 128 66.56 128 143.36 0 66.56-40.96 128-112.64 148.48-66.56 15.36-143.36-20.48-168.96-87.04-25.6-66.56 0-148.48 61.44-184.32 15.36-5.12 15.36-15.36 15.36-30.72V445.44c0-20.48 5.12-25.6 25.6-25.6 20.48 5.12 40.96 0 61.44 0z m51.2 353.28c0-46.08-35.84-81.92-81.92-81.92-46.08 0-81.92 35.84-81.92 81.92 0 46.08 40.96 87.04 87.04 87.04 40.96-5.12 76.8-40.96 76.8-87.04z" p-id="4013"></path></svg>